<svg xmlns="http://www.w3.org/2000/svg" viewBox="0 0 64 64"><g id="Page-1" fill="none" fill-rule="evenodd"><path id="Combined-Shape" fill="#4990E2" d="M32 64a32 32 0 1 1 0-64 32 32 0 0 1 0 64zm0-2a30 30 0 1 0 0-60 30 30 0 0 0 0 60zm-9-22h18a5 5 0 0 0 4-2 5 5 0 0 0-4-2H23a7 7 0 0 1-6.33-10A7 7 0 0 1 23 16h25v1a7 7 0 0 1-7 7H23a5 5 0 0 0-4 2 5 5 0 0 0 4 2h18a7 7 0 0 1 6.33 10A7 7 0 0 1 41 48H16v-1a7 7 0 0 1 7-7zm-4.97-11.5A5 5 0 0 0 23 34h18c1.9 0 3.64.76 4.9 2a5.02 5.02 0 0 0-4.9-6H23c-1.9 0-3.64-.76-4.9-2a5 5 0 0 0-.07.5zM41 42H23a5 5 0 0 0-4.9 4H41a5 5 0 0 0 4.9-6c-1.26 1.24-3 2-4.9 2zM23 22h18a5 5 0 0 0 4.9-4H23a5 5 0 0 0-4.9 6c1.26-1.24 3-2 4.9-2z"/></g></svg>